<svg xmlns="http://www.w3.org/2000/svg" width="13.000in" height="4.959in" viewBox="0 0 3900 1488"><path d="M 518.845 16.070 C 469.019 22.234, 433.480 53.491, 411.489 110.493 C 394.218 155.260, 385.859 224.197, 388.886 296.900 C 391.791 366.684, 401.243 412.640, 420.633 451.270 C 444.996 499.806, 484.070 525.012, 534.926 524.996 C 556.315 524.990, 573.756 521.182, 590.903 512.776 C 653.736 481.974, 685.597 392.447, 682.642 255 C 681.063 181.545, 671.349 130.611, 651.269 90.500 C 630.600 49.214, 601.064 25.118, 561.752 17.473 C 551.691 15.516, 529.251 14.782, 518.845 16.070 Z M 3756 16.088 C 3708.038 22.244, 3670.654 51.052, 3646.459 100.500 C 3626.027 142.259, 3616.986 186.091, 3614.491 255.500 C 3613.783 275.181, 3615.309 317.757, 3617.523 340.081 C 3628.836 454.163, 3666.882 511.150, 3739.418 522.660 C 3753.272 524.858, 3782.801 524.035, 3795.500 521.096 C 3825.538 514.144, 3858.087 497.800, 3879.250 479.041 L 3884 474.830 3884 354.915 L 3884 235 3820 235 C 3779.086 235, 3756 235.352, 3756 235.975 C 3756 239.072, 3764.173 311.471, 3764.601 312.163 C 3764.885 312.623, 3773.191 313, 3783.059 313 L 3801 313 3800.998 371.250 L 3800.996 429.500 3796.248 432.664 C 3784.965 440.183, 3775.180 443.338, 3763 443.385 C 3752.130 443.428, 3744.932 441.260, 3737.312 435.651 C 3720.188 423.045, 3710.977 391.978, 3706.877 333 C 3705.271 309.901, 3705.256 235.955, 3706.853 216 C 3712.384 146.896, 3725.677 113.726, 3753.047 100.732 C 3761.837 96.559, 3768.618 94.994, 3777.799 95.017 C 3797.373 95.068, 3812.692 102.311, 3833.499 121.354 L 3841.874 129.019 3862.437 102.059 C 3873.747 87.231, 3883 74.420, 3883 73.590 C 3883 71.204, 3859.422 48.037, 3849.500 40.675 C 3839.036 32.910, 3822.129 24.280, 3810.004 20.515 C 3793.951 15.531, 3773.441 13.849, 3756 16.088 Z M 31.157 262.242 C 24.919 391.634, 19.564 500.988, 19.259 505.250 L 18.704 513 59.833 513 L 100.962 513 101.408 510.750 C 102.594 504.775, 105.171 277.564, 104.853 207.063 C 104.659 163.923, 104.670 129.498, 104.878 130.563 C 105.086 131.628, 115.232 206.300, 127.424 296.500 L 149.592 460.500 190.725 460.761 C 229.275 461.006, 231.889 460.911, 232.341 459.261 C 232.607 458.292, 242.202 384.245, 253.662 294.711 L 274.500 131.922 275.143 211.711 C 275.593 267.664, 279.274 496.271, 279.989 512.750 C 279.995 512.888, 298.711 513, 321.580 513 L 363.160 513 362.533 503.250 C 362.037 495.547, 340 30.482, 340 27.719 C 340 27.324, 315.119 27, 284.710 27 L 229.419 27 211.074 191.750 C 200.985 282.363, 192.565 356.688, 192.365 356.917 C 192.164 357.146, 191.981 356.921, 191.957 356.417 C 191.933 355.913, 182.810 281.700, 171.682 191.500 L 151.450 27.500 96.975 27.242 L 42.500 26.983 31.157 262.242 Z M 724 270.058 L 724 513.115 791.250 512.757 C 855.479 512.414, 858.997 512.300, 869.566 510.220 C 943.723 495.624, 978 452.036, 978 372.331 C 978 340.445, 972.218 316.220, 960.333 298.314 C 948.918 281.116, 928.711 265.807, 907.705 258.442 L 899.911 255.709 906.205 253.040 C 931.958 242.122, 953.186 216.483, 960.448 187.527 C 967.414 159.748, 965.638 124.554, 955.996 99.304 C 943.244 65.909, 913.992 42.562, 872.500 32.662 C 851.597 27.674, 840.559 27, 779.756 27 L 724 27 724 270.058 Z M 1012 270 L 1012 513 1056.500 513 L 1101 513 1101 270 L 1101 27 1056.500 27 L 1012 27 1012 270 Z M 1153 270.005 L 1153 513.010 1253.724 512.755 L 1354.449 512.500 1358.662 472 C 1360.979 449.725, 1362.903 430.262, 1362.937 428.750 L 1363 426 1302 426 L 1241 426 1241 226.500 L 1241 27 1197 27 L 1153 27 1153 270.005 Z M 1392 270 L 1392 513 1494 513 L 1596 513 1596 473 L 1596 433 1538 433 L 1480 433 1480 369.010 L 1480 305.019 1527.750 304.760 L 1575.500 304.500 1575.762 266.250 L 1576.024 228 1528.012 228 L 1480 228 1480 167.009 L 1480 106.017 1534.233 105.759 L 1588.467 105.500 1592.685 69 C 1595.005 48.925, 1596.925 31.262, 1596.952 29.750 L 1597 27 1494.500 27 L 1392 27 1392 270 Z M 1738 270.054 L 1738 513.108 1802.250 512.743 L 1866.500 512.379 1878 509.753 C 1910.261 502.386, 1932.670 489.475, 1955.426 465.144 C 1979.331 439.583, 1995.032 395.888, 2001.472 337 C 2006.284 293.008, 2005.836 232.041, 2000.397 190.500 C 1994.306 143.981, 1982.042 108.997, 1961.898 80.677 C 1942.982 54.084, 1918.052 38.624, 1882.674 31.545 C 1862.118 27.432, 1853.742 27, 1794.539 27 L 1738 27 1738 270.054 Z M 2046 270 L 2046 513 2148 513 L 2250 513 2250 473 L 2250 433 2192.500 433 L 2135 433 2135 369 L 2135 305 2182.500 305 L 2230 305 2230 266.500 L 2230 228 2182.500 228 L 2135 228 2135 167 L 2135 106 2189 106 C 2218.700 106, 2243 105.742, 2243 105.428 C 2243 104.495, 2250.895 35.880, 2251.535 31.250 L 2252.123 27 2149.061 27 L 2046 27 2046 270 Z M 2266 69 L 2266 111 2305.500 111 L 2345 111 2345 312 L 2345 513 2389 513 L 2433 513 2433 312 L 2433 111 2470.500 111 C 2491.125 111, 2508 110.801, 2508 110.557 C 2508 109.449, 2516.020 34.080, 2516.492 30.750 L 2517.024 27 2391.512 27 L 2266 27 2266 69 Z M 2576.625 28.750 C 2576.345 29.712, 2567.106 77.075, 2556.095 134 C 2545.083 190.925, 2524.132 299.091, 2509.537 374.369 C 2494.942 449.647, 2483 511.634, 2483 512.119 C 2483 512.614, 2502.045 513, 2526.433 513 C 2566.944 513, 2569.898 512.882, 2570.354 511.250 C 2570.623 510.288, 2574.106 486.438, 2578.094 458.250 L 2585.345 407 2628.546 407 L 2671.747 407 2673.252 416.750 C 2674.079 422.112, 2677.614 445.962, 2681.107 469.750 L 2687.459 513 2732.059 513 L 2776.660 513 2774.010 499.250 C 2772.552 491.688, 2751.368 382.338, 2726.935 256.250 L 2682.510 27 2629.823 27 C 2580.504 27, 2577.102 27.112, 2576.625 28.750 Z M 2798 270 L 2798 513 2842 513 L 2886 513 2886 270 L 2886 27 2842 27 L 2798 27 2798 270 Z M 2938 270 L 2938 513 3038.757 513 L 3139.515 513 3143.808 470.250 C 3146.169 446.738, 3148.078 427.163, 3148.050 426.750 C 3148.023 426.337, 3120.550 426, 3087 426 L 3026 426 3026 226.500 L 3026 27 2982 27 L 2938 27 2938 270 Z M 3177 270 L 3177 513 3221 513 L 3265 513 3265 270 L 3265 27 3221 27 L 3177 27 3177 270 Z M 3317 269.991 L 3317 513 3355.082 513 L 3393.163 513 3392.728 385.250 C 3392.256 247.007, 3392.463 253.414, 3385.916 174.716 C 3384.233 154.484, 3383.014 137.459, 3383.206 136.883 C 3383.398 136.306, 3401.578 220.584, 3423.606 324.167 L 3463.656 512.500 3518.328 512.759 L 3573 513.017 3573 270.009 L 3573 27 3534.500 27 L 3496 27 3496.018 129.250 C 3496.043 271.431, 3497.463 311.103, 3505.112 383.312 C 3506.266 394.208, 3507.039 403.294, 3506.831 403.503 C 3506.622 403.712, 3488.447 319.196, 3466.441 215.691 L 3426.432 27.500 3371.716 27.241 L 3317 26.983 3317 269.991 Z M 524.118 97.443 C 509.731 102.118, 498.296 117.240, 491.483 140.600 C 484.111 165.872, 480.999 198.109, 480.282 256.596 C 478.848 373.678, 489.866 426.535, 518.643 440.614 C 526.216 444.319, 539.906 445.179, 548.146 442.468 C 573.721 434.055, 585.411 401.791, 589.982 327 C 591.274 305.866, 591.278 236.602, 589.989 214.500 C 585.921 144.739, 574.523 110.720, 551.432 99.423 C 546.718 97.116, 544.092 96.547, 537.081 96.309 C 531.617 96.125, 526.908 96.536, 524.118 97.443 Z M 813 164 L 813 223 822.750 222.992 C 854.056 222.968, 867.444 213.370, 873.652 186.500 C 876.220 175.382, 876.196 148.395, 873.609 139 C 866.794 114.253, 853.564 105.051, 824.750 105.015 L 813 105 813 164 Z M 1826.750 106.551 C 1826.338 106.981, 1826 180.608, 1826 270.167 L 1826 433 1840.770 433 C 1861.559 433, 1870.196 430.510, 1881.757 421.182 C 1893.923 411.367, 1904.758 384.587, 1909.403 352.854 C 1916.856 301.929, 1916.178 217.573, 1907.977 175.377 C 1901.659 142.873, 1892.111 123.840, 1877.387 114.394 C 1868.073 108.418, 1861.384 106.813, 1843.500 106.262 C 1834.700 105.990, 1827.162 106.120, 1826.750 106.551 Z M 2612.847 217.500 C 2604.267 277.450, 2597.348 326.619, 2597.471 326.764 C 2597.594 326.910, 2611.835 326.910, 2629.117 326.764 L 2660.540 326.500 2644.899 219.500 C 2636.296 160.650, 2629.076 111.600, 2628.853 110.500 C 2628.630 109.400, 2621.428 157.550, 2612.847 217.500 Z M 813 364.364 L 813 433 827.840 433 C 850.876 433, 862.837 429.153, 872.909 418.503 C 883.340 407.474, 887.011 395.455, 887.724 370 C 888.101 356.562, 887.838 350.332, 886.592 343.161 C 882.376 318.896, 871.784 304.552, 853.888 298.873 C 848.928 297.300, 843.643 296.721, 830.250 296.287 L 813 295.727 813 364.364 Z M 135.130 713.713 C 134.598 715.796, 108.702 821.139, 77.582 947.808 L 21 1178.117 21 1232.058 L 21 1286 110.500 1286 L 200 1286 200.002 1341.750 C 200.004 1372.412, 200.300 1407.287, 200.662 1419.250 L 201.319 1441 253.159 1441 L 305 1441 305 1363.500 L 305 1286 327 1286 L 349 1286 349 1226 L 349 1166 327 1166 L 305 1166 305 1080 L 305 994 259.629 994 L 214.258 994 213.669 999.750 C 213.346 1002.913, 210.560 1040.600, 207.479 1083.500 C 204.398 1126.400, 201.671 1162.513, 201.420 1163.750 L 200.962 1166 166.914 1166 C 134.959 1166, 132.897 1165.892, 133.374 1164.250 C 134.521 1160.304, 229.999 759.172, 229.981 758.370 C 229.971 757.892, 208.843 746.796, 183.030 733.713 L 136.097 709.926 135.130 713.713 Z M 485.254 714.070 C 441.129 718.337, 402.492 746.241, 370.754 796.762 C 367.044 802.668, 360.820 813.710, 356.923 821.300 C 350.784 833.258, 350.016 835.326, 351.169 836.790 C 353.563 839.830, 414.282 904.053, 414.498 903.773 C 414.614 903.623, 418.574 897.078, 423.300 889.229 C 447.804 848.526, 463.970 835.757, 489.152 837.215 C 504.159 838.084, 515.503 846.470, 523.031 862.263 C 530.301 877.512, 532.986 893.690, 532.994 922.293 C 533.003 952.265, 529.737 977.970, 521.976 1009 C 507.908 1065.248, 474.536 1134.804, 386.870 1290.587 L 366 1327.673 366 1384.337 L 366 1441 505.500 1441 L 645 1441 645.056 1438.250 C 645.086 1436.737, 647.710 1409.175, 650.887 1377 C 654.063 1344.825, 656.487 1318.162, 656.272 1317.750 C 656.058 1317.338, 617.670 1317, 570.968 1317 L 486.053 1317 492.839 1306.250 C 522.657 1259.014, 563.015 1187.993, 584.753 1144.500 C 626.992 1059.992, 643.145 1005.151, 647.144 932.683 C 650.733 867.649, 637.469 811.315, 609.015 770.746 C 599.852 757.682, 585.590 743.652, 573.267 735.578 C 552.677 722.087, 536.386 716.498, 510.500 714.044 C 498.453 712.902, 497.315 712.904, 485.254 714.070 Z M 1470.254 714.015 C 1430.719 718.103, 1396.465 740.640, 1368.327 781.079 C 1319.900 850.674, 1294.011 967.350, 1294.011 1116 C 1294.011 1288.407, 1326.757 1399.082, 1389.820 1439.815 C 1408.199 1451.686, 1427.415 1457.611, 1451.088 1458.706 C 1494.182 1460.698, 1529.762 1444.781, 1557.212 1411.232 C 1580.249 1383.075, 1597.913 1339.534, 1606.393 1290 C 1617.851 1223.079, 1616.091 1140.984, 1601.935 1082 C 1595.441 1054.945, 1584.191 1028.005, 1571.264 1008.556 C 1563.609 997.038, 1550.463 983.304, 1541.035 976.974 C 1517.360 961.079, 1487.291 958.993, 1461.500 971.456 C 1452.939 975.593, 1445.563 980.635, 1438.138 987.425 C 1431.213 993.759, 1418.581 1010.904, 1412.297 1022.500 C 1408.399 1029.693, 1408.479 1030.573, 1410.523 1003 C 1417.911 903.326, 1439.928 844.287, 1474.678 830.966 C 1483.381 827.629, 1495.777 827.858, 1506.885 831.560 C 1516.196 834.663, 1528 841.351, 1535.855 847.975 C 1538.691 850.366, 1541.159 852.137, 1541.340 851.911 C 1541.520 851.685, 1550.351 831.184, 1560.964 806.354 L 1580.260 761.207 1577.606 757.728 C 1572.004 750.384, 1554.573 736.343, 1541.785 728.874 C 1521.872 717.244, 1494.337 711.525, 1470.254 714.015 Z M 1807.462 714.112 C 1723.455 722.952, 1675.576 810.707, 1661.573 981.500 C 1657.498 1031.206, 1656.939 1124.939, 1660.420 1175 C 1667.752 1280.439, 1685.990 1352.546, 1717.378 1400.187 C 1737.201 1430.276, 1763.764 1449.485, 1795 1456.320 C 1806.154 1458.760, 1832.111 1459.169, 1843 1457.076 C 1900.837 1445.958, 1939.732 1396.446, 1961.960 1305.641 C 1971.479 1266.754, 1977.400 1222.676, 1981.189 1162.500 C 1982.847 1136.181, 1982.852 1034.960, 1981.198 1009.500 C 1974.858 911.932, 1961.515 848.021, 1936.938 797.500 C 1911.783 745.789, 1877.492 718.399, 1832.425 714.017 C 1821.161 712.921, 1818.683 712.931, 1807.462 714.112 Z M 2189.910 714.045 C 2172.414 715.604, 2152.208 722.685, 2137.691 732.344 C 2089.051 764.708, 2058.378 838.263, 2046.092 952 C 2041.427 995.188, 2039.943 1027.247, 2039.937 1085 C 2039.927 1171.584, 2044.676 1229.350, 2056.544 1287 C 2073.813 1370.889, 2105.998 1425.688, 2150.500 1446.972 C 2168.533 1455.597, 2180.721 1458.249, 2203 1458.397 C 2224.972 1458.543, 2238.172 1455.521, 2256.481 1446.154 C 2307.532 1420.035, 2340.395 1352.418, 2355.458 1242.500 C 2361.824 1196.051, 2364.393 1150.780, 2364.368 1085.500 C 2364.349 1037.257, 2363.422 1011.512, 2360.460 977 C 2350.843 864.932, 2325.047 787.572, 2283.841 747.223 C 2272.317 735.939, 2265.274 730.779, 2253.500 724.995 C 2240.848 718.781, 2229.387 715.489, 2215.547 714.096 C 2203.729 712.907, 2202.695 712.905, 2189.910 714.045 Z M 3051 714.090 C 3007.425 719.699, 2976.235 739.047, 2951.809 775.619 C 2928.490 810.535, 2917.893 855.609, 2919.293 913.925 C 2919.918 939.972, 2922.039 957.283, 2927.036 977.117 C 2935.887 1012.250, 2951.915 1041.398, 2976.246 1066.603 L 2984.067 1074.705 2975.284 1081.724 C 2963.540 1091.107, 2947.043 1108.405, 2938.747 1120.034 C 2925.926 1138.007, 2914.775 1163.249, 2909.164 1187 C 2903.825 1209.602, 2901.462 1241.687, 2903.052 1270 C 2905.319 1310.378, 2912.357 1340.246, 2926.496 1369.500 C 2944.271 1406.274, 2968.666 1431.603, 2999.683 1445.490 C 3035.455 1461.507, 3083.493 1463.290, 3122.961 1450.066 C 3159.904 1437.689, 3190.208 1409.828, 3209.505 1370.500 C 3228.101 1332.598, 3236.107 1291.078, 3234.668 1240 C 3233.794 1208.992, 3230.399 1186.887, 3222.915 1163.476 C 3213.624 1134.413, 3200.911 1112.215, 3180.011 1088.560 C 3172.669 1080.250, 3155.642 1064.098, 3149.509 1059.626 C 3147.606 1058.239, 3147.911 1057.809, 3156.439 1049.838 C 3183.840 1024.225, 3203.406 991.153, 3212.548 955 C 3216.806 938.161, 3218.189 926.551, 3218.722 903.179 C 3219.653 862.369, 3214.991 832.703, 3203.058 803.500 C 3189.772 770.985, 3164.856 743.123, 3135.982 728.491 C 3113.501 717.099, 3076.430 710.817, 3051 714.090 Z M 3404.346 714.103 C 3391.959 715.339, 3378.157 718.975, 3365.521 724.330 C 3336.026 736.831, 3308.760 763.474, 3291.067 797.083 C 3268.294 840.340, 3257.773 891.631, 3257.751 959.500 C 3257.741 987.998, 3258.851 1005.512, 3262.122 1028.500 C 3276.428 1129.037, 3325.349 1196.093, 3381.912 1192.697 C 3394.030 1191.970, 3401.409 1190.045, 3411.500 1184.981 C 3426.819 1177.293, 3440.387 1163.800, 3455.115 1141.607 C 3460.449 1133.569, 3462.837 1130.652, 3462.483 1132.607 C 3462.195 1134.198, 3460.827 1141.800, 3459.443 1149.500 C 3454.889 1174.835, 3447.977 1199.212, 3439.312 1220.500 C 3417.600 1273.842, 3381.194 1310.933, 3319.500 1342.565 C 3310.700 1347.077, 3299.800 1352.255, 3295.277 1354.070 C 3288.206 1356.909, 3287.119 1357.660, 3287.515 1359.435 C 3287.768 1360.571, 3292.751 1385.800, 3298.589 1415.500 C 3304.427 1445.200, 3309.368 1469.673, 3309.570 1469.884 C 3310.128 1470.471, 3326.717 1464.387, 3344 1457.257 C 3362.929 1449.449, 3391.516 1434.821, 3407 1425.020 C 3462.738 1389.740, 3499.136 1349.421, 3527.534 1291.500 C 3551.890 1241.826, 3566.565 1186.728, 3574.943 1113.500 C 3582.408 1048.253, 3582.870 957.210, 3575.996 905.769 C 3562.670 806.043, 3522.901 740.088, 3464.447 720.769 C 3446.343 714.785, 3423.214 712.220, 3404.346 714.103 Z M 703 919 L 703 1110 739.555 1110 L 776.111 1110 784.536 1102.723 C 800.951 1088.545, 807.795 1085.562, 824 1085.526 C 834.233 1085.503, 835.993 1085.763, 839.980 1087.888 C 846.816 1091.531, 851.469 1095.656, 855.952 1102.047 C 867.997 1119.219, 873.505 1146.292, 874.659 1194 C 876.296 1261.637, 866.288 1305.199, 844.309 1326.110 C 828.783 1340.881, 806.709 1342.749, 784.500 1331.171 C 772.771 1325.056, 754.072 1304.412, 740.838 1282.966 C 738.474 1279.135, 736.306 1276.019, 736.020 1276.043 C 735.734 1276.066, 721.933 1293.233, 705.350 1314.191 L 675.201 1352.296 678.783 1358.898 C 703.187 1403.867, 734.506 1436.334, 765.261 1448.545 C 793.241 1459.654, 823.987 1461.735, 853.690 1454.531 C 913.156 1440.109, 957.104 1387.393, 976.979 1306.645 C 985.116 1273.590, 988.059 1246.479, 988.068 1204.500 C 988.084 1134.967, 979.257 1084.436, 960.118 1044.500 C 937.164 996.605, 904.491 972.934, 864.745 975.404 C 845.092 976.626, 832.584 982.353, 808.250 1001.273 C 807.252 1002.049, 807 986.172, 807 922.622 L 807 843 880.955 843 L 954.909 843 955.461 839.750 C 955.765 837.962, 958.472 813.775, 961.478 786 C 964.484 758.225, 967.186 733.813, 967.483 731.750 L 968.024 728 835.512 728 L 703 728 703 919 Z M 2612 788 L 2612 848 2694.500 848 C 2762.851 848, 2777 848.230, 2777 849.342 C 2777 850.080, 2766.905 891.818, 2754.567 942.092 C 2742.229 992.366, 2711.404 1117.973, 2686.067 1221.217 C 2660.730 1324.461, 2640 1409.516, 2640 1410.227 C 2640 1411.270, 2738.936 1458.413, 2739.627 1457.700 C 2739.734 1457.590, 2746.644 1429.375, 2754.984 1395 C 2763.324 1360.625, 2797.339 1220.534, 2830.573 1083.686 L 2891 834.872 2891 781.436 L 2891 728 2751.500 728 L 2612 728 2612 788 Z M 3601 788 L 3601 848 3683.519 848 L 3766.038 848 3765.499 850.250 C 3764.391 854.878, 3688.771 1163.191, 3658.903 1284.858 C 3641.842 1354.355, 3628.022 1411.311, 3628.191 1411.427 C 3629.201 1412.116, 3725.972 1456.970, 3726.963 1457.209 C 3728.179 1457.501, 3731.714 1443.290, 3784.966 1224 C 3797.054 1174.225, 3823.156 1066.745, 3842.972 985.155 L 3879 836.809 3879 782.405 L 3879 728 3740 728 L 3601 728 3601 788 Z M 3056.696 823.898 C 3048.072 826.750, 3040.705 832.973, 3035.249 842.015 C 3032.449 846.655, 3028.577 860.302, 3026.884 871.500 C 3025.112 883.217, 3025.053 928.549, 3026.796 939 C 3031.788 968.937, 3042.013 987.933, 3062.139 1004.663 C 3070.881 1011.930, 3081.020 1019.365, 3081.443 1018.819 C 3084.703 1014.616, 3091.055 1003.938, 3095.358 995.428 C 3107.343 971.721, 3111.725 951.130, 3112.690 913.981 C 3114.033 862.334, 3106.065 835.557, 3086.485 825.918 C 3078.029 821.755, 3065.701 820.919, 3056.696 823.898 Z M 3407.775 827.094 C 3389.525 833.649, 3377.888 857.276, 3372.496 898.721 C 3368.882 926.501, 3368.882 982.932, 3372.497 1011.614 C 3377.109 1048.209, 3387.962 1071.942, 3403.578 1079.582 C 3408.344 1081.914, 3409.942 1082.201, 3415.796 1081.782 C 3424.894 1081.132, 3430.858 1078.262, 3438.631 1070.799 C 3448.259 1061.554, 3457.575 1046.302, 3464.990 1027.645 L 3467.318 1021.790 3466.685 982.645 C 3465.975 938.763, 3464.901 919.085, 3461.903 895.063 C 3457.062 856.273, 3447.464 834.527, 3432.196 827.758 C 3425.416 824.752, 3415.077 824.470, 3407.775 827.094 Z M 1809 834.275 C 1785.733 845.522, 1776.346 889.785, 1773.009 1004 C 1771.745 1047.248, 1771.745 1124.132, 1773.008 1168 C 1775.870 1267.348, 1783.075 1312.171, 1799.112 1330.389 C 1805.335 1337.460, 1811.762 1340.393, 1821 1340.381 C 1849.491 1340.343, 1860.820 1309.148, 1865.991 1216.500 C 1866.544 1206.600, 1867.478 1172.876, 1868.066 1141.558 C 1869.163 1083.147, 1868.153 992.707, 1865.983 955 C 1861.452 876.303, 1852.839 844.075, 1833.801 834.588 C 1826.879 831.139, 1815.778 830.998, 1809 834.275 Z M 2190.207 834.584 C 2162.890 848.197, 2154.018 909.946, 2154.012 1086.500 C 2154.006 1263.469, 2162.885 1324.745, 2190.445 1337.954 C 2203.816 1344.362, 2219.221 1339.462, 2227.895 1326.041 C 2244.198 1300.818, 2249.964 1237.987, 2249.971 1085.500 C 2249.976 994.215, 2248.432 949.194, 2243.902 908.531 C 2237.756 853.349, 2226.213 832.043, 2202.446 832.010 C 2196.853 832.002, 2194.319 832.535, 2190.207 834.584 Z M 1035.667 1048.667 C 1035.300 1049.033, 1035 1077.158, 1035 1111.167 L 1035 1173 1136.500 1173 L 1238 1173 1238 1110.500 L 1238 1048 1137.167 1048 C 1081.708 1048, 1036.033 1048.300, 1035.667 1048.667 Z M 2421.671 1048.662 C 2421.302 1049.031, 2421 1077.158, 2421 1111.167 L 2421 1173 2522.508 1173 L 2624.015 1173 2623.758 1110.750 L 2623.500 1048.500 2522.921 1048.245 C 2467.603 1048.105, 2422.041 1048.293, 2421.671 1048.662 Z M 1453.686 1072.912 C 1439.960 1078.452, 1426.750 1094.603, 1413.796 1121.683 L 1407.760 1134.301 1408.907 1173.764 C 1410.538 1229.842, 1412.738 1261.374, 1416.602 1284.049 C 1423.511 1324.587, 1436.396 1343.510, 1457 1343.379 C 1483.668 1343.209, 1496.340 1313.895, 1501.043 1241.500 C 1502.736 1215.441, 1502.465 1157.734, 1500.558 1138 C 1497.183 1103.075, 1489.142 1081.856, 1476.467 1074.428 C 1470.238 1070.778, 1460.570 1070.134, 1453.686 1072.912 Z M 3044.323 1123.808 C 3029.193 1143.790, 3019.301 1169.440, 3014.363 1201.500 C 3012.069 1216.394, 3011.684 1268.643, 3013.776 1281 C 3020.497 1320.679, 3035.509 1340.380, 3061.959 1344.235 C 3088.999 1348.176, 3109.476 1334.586, 3118.906 1306.441 C 3127.328 1281.301, 3129.112 1237.285, 3122.944 1206.795 C 3115.982 1172.383, 3102.101 1154.945, 3054.445 1120.744 L 3049.391 1117.116 3044.323 1123.808 Z" fill="#000" fill-rule="evenodd"/></svg>
